/vscmnt/brussel_pixiu_data/_data_brussel/112/vsc11236/PredSimResults/SUBJ06opt3D/trackIG/worker_14.mot
version=1
nRows=8
nColumns=50
inDegrees=yes
endheader
                time	         pelvis_tilt	         pelvis_list	     pelvis_rotation	           pelvis_tx	           pelvis_ty	           pelvis_tz	       hip_flexion_r	     hip_adduction_r	      hip_rotation_r	        knee_angle_r	       ankle_angle_r	         mtp_angle_r	       hip_flexion_l	     hip_adduction_l	      hip_rotation_l	        knee_angle_l	       ankle_angle_l	         mtp_angle_l	    lumbar_extension	      lumbar_bending	     lumbar_rotation	 ercspn_r/activation	 intobl_r/activation	 extobl_r/activation	    abd_r/activation	    add_r/activation	hamstrings_r/activation	bifemsh_r/activation	glut_max_r/activation	iliopsoas_r/activation	rect_fem_r/activation	  vasti_r/activation	gastroc_r/activation	 soleus_r/activation	tib_ant_r/activation	 ercspn_l/activation	 intobl_l/activation	 extobl_l/activation	    abd_l/activation	    add_l/activation	hamstrings_l/activation	bifemsh_l/activation	glut_max_l/activation	iliopsoas_l/activation	rect_fem_l/activation	  vasti_l/activation	gastroc_l/activation	 soleus_l/activation	tib_ant_l/activation	
          1.71893113	        -13.89505525	          1.33371681	        -10.11255335	          3.26596916	          0.88899657	          0.01262539	         -1.33070886	         -1.76359553	          3.03091864	        -24.90397650	          5.06402276	         48.35445623	         46.78687823	         -4.96604933	         -5.62428334	        -11.34933601	         -1.53526310	          0.24373832	         -5.55615094	          0.99410400	          1.87001556	          0.25597334	          0.01411850	          0.00999999	          0.05362935	          0.04048288	          0.13348830	          0.75473734	          0.04821480	          0.07154684	          0.02478583	          0.07375800	          0.20846014	          0.33844402	          0.01853946	          0.22301214	          0.08530114	          0.00999999	          0.00999999	          0.15129780	          0.00999999	          0.30359851	          0.01551298	          0.15719724	          0.03727039	          0.00999999	          0.04821480	          0.01689377	          0.49022575	
          1.73039068	        -13.72425561	          1.42116445	        -10.44293332	          3.29452027	          0.88859822	          0.01177536	         -2.94212200	         -2.31606127	          2.44763600	        -24.71475324	          1.76577378	         49.78717649	         46.63120863	         -5.04042174	         -6.89595072	        -14.20397642	         -2.13565284	          0.26001824	         -5.04123986	          0.75443670	          2.08964153	          0.25091223	          0.02012035	          0.00999999	          0.04502913	          0.03399088	          0.13760498	          0.63370461	          0.04048288	          0.23547635	          0.02081107	          0.06192987	          0.18804625	          0.28416976	          0.01556640	          0.18724901	          0.07162190	          0.00999999	          0.00999999	          0.15585983	          0.04787797	          0.25491223	          0.13345544	          0.13198845	          0.03129356	          0.00999999	          0.04048288	          0.01418461	          0.55820641	
          1.74185022	        -13.53408732	          1.59559727	        -10.75489374	          3.32316000	          0.88790241	          0.01083395	         -4.19108951	         -2.97495055	          1.76258058	        -25.22713628	         -1.16833768	         50.01977818	         46.42842960	         -5.08290482	         -7.78442915	        -17.47417692	         -2.28203547	          0.17091177	         -4.51215665	          0.42561244	          2.29665006	          0.21339752	          0.01689377	          0.00999999	          0.03780807	          0.02853996	          0.11553809	          0.53208118	          0.03399088	          0.54237670	          0.01747372	          0.05199854	          0.15789039	          0.23859915	          0.01307011	          0.15722100	          0.06013632	          0.00999999	          0.11743459	          0.17591743	          0.07959942	          0.21403347	          0.15756822	          0.11082225	          0.02627519	          0.00999999	          0.03399088	          0.01190991	          0.64788574	
          1.75330976	        -13.33142564	          1.83577152	        -11.05199027	          3.35141446	          0.88715847	          0.00969052	         -4.89105114	         -3.72386334	          1.02768871	        -26.65389444	         -3.94561234	         49.34183062	         46.36638381	         -4.99464592	         -8.26724885	        -21.00892152	         -2.08933041	          0.11524480	         -4.03333068	          0.03837140	          2.49808142	          0.29245745	          0.01418461	          0.00999999	          0.03174502	          0.02396318	          0.09700994	          0.44675449	          0.02853996	          0.74057186	          0.01467157	          0.04365985	          0.13257045	          0.20033643	          0.01097413	          0.15259981	          0.05049262	          0.00999999	          0.20299976	          0.26360538	          0.07657879	          0.17971020	          0.48093307	          0.09305035	          0.02206160	          0.00999999	          0.02853996	          0.00999999	          0.58349008	
          1.76476930	        -13.11216326	          2.15084621	        -11.34552160	          3.37901274	          0.88663618	          0.00829778	         -4.92921290	         -4.59355852	          0.26120584	        -29.08484188	         -6.76142351	         47.86353015	         46.55616594	         -4.72280084	         -8.25527155	        -25.00126931	         -1.21955242	          0.05530400	         -3.63419177	         -0.41111517	          2.70942770	          0.41308100	          0.01190991	          0.00999999	          0.02665426	          0.02012035	          0.08145303	          0.37511113	          0.02396318	          0.85292935	          0.01231878	          0.03665838	          0.11131092	          0.16820967	          0.00999999	          0.20588146	          0.04239542	          0.00999999	          0.34162500	          0.38794113	          0.06588961	          0.15089114	          0.64602578	          0.07812842	          0.01852371	          0.00999999	          0.02396318	          0.10278130	          0.48991925	
          1.77622884	        -12.87503551	          2.49509199	        -11.61849487	          3.40602683	          0.88651378	          0.00669735	         -4.34804174	         -5.55640107	         -0.54077483	        -32.36318562	         -9.80157360	         45.59746457	         46.85869764	         -4.33196349	         -8.01050955	        -29.34908772	          1.02250038	          0.40145392	         -3.29534740	         -0.86893579	          2.92043214	          0.49937713	          0.00999999	          0.00999999	          0.02237987	          0.01689377	          0.06839089	          0.31495679	          0.02012035	          0.75261838	          0.01034329	          0.03077969	          0.09346065	          0.14123489	          0.00999999	          0.24356375	          0.03559672	          0.00999999	          0.44625879	          0.43781619	          0.05532329	          0.12669363	          0.54242648	          0.06559943	          0.01555317	          0.08742033	          0.02012035	          0.15813034	          0.41135382	
          1.78768838	        -12.62898158	          2.80365716	        -11.84703172	          3.43266283	          0.88689833	          0.00494950	         -3.29535394	         -6.56465208	         -1.37282808	        -36.20326574	        -12.81907147	         41.92530523	         46.88534499	         -3.87314672	         -7.76388689	        -33.18526636	          3.38608890	          1.38636730	         -2.97848580	         -1.25963535	          3.11299820	          0.50975713	          0.00999999	          0.00999999	          0.04821480	          0.01418461	          0.05742345	          0.26444905	          0.01689377	          0.63192546	          0.00999999	          0.02584374	          0.07847292	          0.11858589	          0.20111769	          0.23692510	          0.02988828	          0.00999999	          0.50029770	          0.36760622	          0.06032366	          0.10637653	          0.45544077	          0.05507964	          0.01305900	          0.20975110	          0.01689377	          0.22551530	          0.34538746	
          1.79914792	        -12.39061249	          3.06807754	        -12.03941346	          3.45888547	          0.88784656	          0.00317572	         -1.93139899	         -7.60356760	         -2.23242063	        -40.34542890	        -14.82580087	         36.49491473	         46.42638031	         -3.36849886	         -7.63149625	        -36.04565785	          5.36326147	          2.88102120	         -2.66459248	         -1.58118363	          3.29273948	          0.49573381	          0.01190991	          0.00999999	          0.04048288	          0.01190991	          0.04821480	          0.25258621	          0.01418461	          0.53058733	          0.00999999	          0.02169933	          0.10353548	          0.09956898	          0.23425072	          0.19893083	          0.02509528	          0.00999999	          0.53427423	          0.30865540	          0.06824937	          0.08931756	          0.38240445	          0.04624684	          0.01096481	          0.48598041	          0.01418461	          0.28741956	          0.28999973	
